<svg xmlns="http://www.w3.org/2000/svg" data-name="Layer 1" viewBox="0 0 24 30" x="0px" y="0px"><path style="fill: white;" d="M12,4.17377h0l1.2934.795a1.99866,1.99866,0,0,0,1.047.296l.04145-.00037.01379-.00036,1.51746-.04175.72253,1.33478a1.99365,1.99365,0,0,0,.807.80719l1.33508.72259L18.736,9.60419a1.995,1.995,0,0,0,.29535,1.10248L19.82623,12l-.795,1.2934a1.99484,1.99484,0,0,0-.29529,1.10223l.04175,1.51746-1.33478.72253a1.99365,1.99365,0,0,0-.80719.807l-.72259,1.33508L14.39624,18.736l-.04175-.00079h-.0141a1.99859,1.99859,0,0,0-1.04706.29608L12,19.82623l-1.2934-.795a1.99866,1.99866,0,0,0-1.047-.296l-.04145.00037-.01379.00036-1.51746.04175-.72253-1.33478a1.99365,1.99365,0,0,0-.807-.80719l-1.33508-.72259L5.264,14.39581a1.995,1.995,0,0,0-.29535-1.10248L4.17377,12l.795-1.2934A1.99484,1.99484,0,0,0,5.264,9.60437L5.22229,8.08691l1.33478-.72253a1.99365,1.99365,0,0,0,.80719-.807l.72259-1.33508L9.60376,5.264l.04175.00079h.0141a1.99859,1.99859,0,0,0,1.04706-.29608L12,4.17377m0-1a.9992.9992,0,0,0-.52362.14807L10.183,4.11676a.99962.99962,0,0,1-.52343.148L9.6319,4.2644,8.11438,4.22266l-.02765-.00037a.99992.99992,0,0,0-.87927.524L6.4848,6.08136a.999.999,0,0,1-.40344.40344l-1.33508.72266a.99993.99993,0,0,0-.52362.90692L4.2644,9.6319a.99985.99985,0,0,1-.14764.55114l-.79492,1.29334a1,1,0,0,0,0,1.04724L4.11676,13.817a.99985.99985,0,0,1,.14764.55114l-.04174,1.51752a.99993.99993,0,0,0,.52362.90692l1.33508.72266a.999.999,0,0,1,.40344.40344l.72266,1.33508a.99992.99992,0,0,0,.87927.524l.02765-.00037L9.6319,19.7356l.02771-.00037a.99978.99978,0,0,1,.52343.148l1.29334.79492a.99987.99987,0,0,0,1.04724,0l1.29334-.79492a.99962.99962,0,0,1,.52343-.148l.02771.00037,1.51752.04174.02765.00037a.99992.99992,0,0,0,.87927-.524l.72266-1.33508a.999.999,0,0,1,.40344-.40344l1.33508-.72266a.99993.99993,0,0,0,.52362-.90692L19.7356,14.3681a.99985.99985,0,0,1,.14764-.55114l.79492-1.29334a1,1,0,0,0,0-1.04724L19.88324,10.183a.99985.99985,0,0,1-.14764-.55114l.04174-1.51752a.99993.99993,0,0,0-.52362-.90692L17.91864,6.4848a.999.999,0,0,1-.40344-.40344l-.72266-1.33508a.99992.99992,0,0,0-.87927-.524l-.02765.00037L14.3681,4.2644l-.02771.00037a.99978.99978,0,0,1-.52343-.148l-1.29334-.79492A.9992.9992,0,0,0,12,3.17377Zm-.45117,12.82428a.50216.50216,0,0,0,.36719-.22071l4-6a.5.5,0,1,0-.832-.55468l-3.6621,5.49218L8.85352,12.14648a.5.5,0,0,0-.707.707l3,3A.49727.49727,0,0,0,11.5,16C11.5166,16,11.5332,15.999,11.54883,15.99805Z"/></svg>