<svg xmlns="http://www.w3.org/2000/svg" data-name="Layer 1" viewBox="0 0 24 30" x="0px" y="0px"><path  style="fill: white;" d="M17,4H14a2,2,0,0,0-4,0H7A3,3,0,0,0,4,7V17a3,3,0,0,0,3,3H17a3,3,0,0,0,3-3V7A3,3,0,0,0,17,4Zm2,13a2.0023,2.0023,0,0,1-2,2H7a2.0023,2.0023,0,0,1-2-2V7A2.0023,2.0023,0,0,1,7,5H8A1,1,0,0,0,9,6h6a1,1,0,0,0,1-1h1a2.0023,2.0023,0,0,1,2,2ZM8.25,9.5a.75.75,0,1,1-.75-.75A.75.75,0,0,1,8.25,9.5Zm0,3a.75.75,0,1,1-.75-.75A.75.75,0,0,1,8.25,12.5Zm0,3a.75.75,0,1,1-.75-.75A.75.75,0,0,1,8.25,15.5ZM16.5,10h-6a.5.5,0,0,1,0-1h6a.5.5,0,0,1,0,1Zm0,6h-6a.5.5,0,0,1,0-1h6a.5.5,0,0,1,0,1Zm0-3h-6a.5.5,0,0,1,0-1h6a.5.5,0,0,1,0,1Z"/></svg>