<svg xmlns="http://www.w3.org/2000/svg" data-name="Layer 1" viewBox="0 0 24 30" x="0px" y="0px"><path  style="fill: white;" d="M17.80341,8.37268l-.5644-.70062a.99961.99961,0,0,1-.22-.67713l.0448-.89856a1,1,0,0,0-.73749-1.01507l-.86846-.235a.99962.99962,0,0,1-.576-.41852L14.39,3.67456a.99954.99954,0,0,0-1.19329-.38776l-.8407.32026a.9996.9996,0,0,1-.712,0l-.8407-.32026A.99954.99954,0,0,0,9.61,3.67456l-.49183.75317a.99957.99957,0,0,1-.57605.41852l-.8684.235a1,1,0,0,0-.73749,1.01507l.0448.89856a1,1,0,0,1-.22.67713l-.5644.70062a1.0001,1.0001,0,0,0,0,1.2547l.5644.70056a1,1,0,0,1,.22.67713l-.0448.89856a1,1,0,0,0,.73749,1.01507L8,13.007V20a1.00077,1.00077,0,0,0,1.00409,1.00183.98612.98612,0,0,0,.596-.20178l1.8-1.35a1,1,0,0,1,1.2,0l1.8,1.35a.98556.98556,0,0,0,.59589.20178A1.00081,1.00081,0,0,0,16,20V13.007l.32635-.08832a1,1,0,0,0,.73749-1.01507l-.0448-.89856a1,1,0,0,1,.22-.67713l.56434-.70056A.99994.99994,0,0,0,17.80341,8.37268ZM13.2,18.65009a1.99991,1.99991,0,0,0-2.4,0L9,20V13.44806a.97866.97866,0,0,1,.11816.12421L9.61,14.3255a.99959.99959,0,0,0,1.19329.3877l.84076-.32026a1.00029,1.00029,0,0,1,.712,0l.8407.32026A.99959.99959,0,0,0,14.39,14.3255l.49189-.75323A.9784.9784,0,0,1,15,13.44812v6.55194ZM16.46039,9.7005a1.99806,1.99806,0,0,0-.44013,1.35437l.0448.89856-.86834.235a1.99711,1.99711,0,0,0-1.1521.837l-.49189.75318-.84075-.32025a2.00043,2.00043,0,0,0-1.424,0l-.84075.32031-.49176-.75312a1.99741,1.99741,0,0,0-1.1521-.83715l-.86847-.235.0448-.89862a1.99765,1.99765,0,0,0-.44-1.35425L6.97534,9l.56433-.7005a1.9974,1.9974,0,0,0,.44007-1.35437l-.0448-.89856.86834-.23505a1.99724,1.99724,0,0,0,1.15216-.837l.49189-.75318.84051.32019a1.9998,1.9998,0,0,0,1.4242.00006l.84069-.32025.49176.75306a1.99753,1.99753,0,0,0,1.15217.83715l.8684.23505-.0448.8985a1.9972,1.9972,0,0,0,.44,1.35431L17.02466,9Z"/></svg>