<svg xmlns="http://www.w3.org/2000/svg" viewBox="0 0 24 30" x="0px" y="0px"><title>_</title><g><path style="fill: white;" d="M17.82907,20.6814a2.56324,2.56324,0,0,1-.93165-.17481,23.28008,23.28008,0,0,1-8.11474-5.28906A23.31707,23.31707,0,0,1,3.49215,7.10229a2.53176,2.53176,0,0,1,.5542-2.70507l.49414-.49414a2.00222,2.00222,0,0,1,2.82764,0L9.48971,6.02515a1.99926,1.99926,0,0,1,0,2.82812,1.0014,1.0014,0,0,0,0,1.41406l4.24268,4.24317a1.00319,1.00319,0,0,0,1.41406,0,2.0034,2.0034,0,0,1,2.82861,0l2.12109,2.12109a1.99927,1.99927,0,0,1,0,2.82813l-.49365.49414A2.50688,2.50688,0,0,1,17.82907,20.6814ZM5.247,4.61011l-.49365.49414A1.53019,1.53019,0,0,0,4.42477,6.741,22.31058,22.31058,0,0,0,9.48971,14.5105,22.29635,22.29635,0,0,0,17.25826,19.574a1.531,1.531,0,0,0,1.6377-.32714l.49316-.49414a.99964.99964,0,0,0,0-1.41407L17.268,15.21753a1.00022,1.00022,0,0,0-1.41455,0,2.00222,2.00222,0,0,1-2.82764,0L8.78268,10.97437a1.99927,1.99927,0,0,1,0-2.82813,1.00022,1.00022,0,0,0,.00049-1.41406L6.6611,4.61011A1.0032,1.0032,0,0,0,5.247,4.61011Z"/></g><text x="0" y="39" fill="#000000" font-size="5px" font-weight="bold" font-family="'Helvetica Neue', Helvetica, Arial-Unicode, Arial, Sans-serif">Created by Sophia Bai</text><text x="0" y="44" fill="#000000" font-size="5px" font-weight="bold" font-family="'Helvetica Neue', Helvetica, Arial-Unicode, Arial, Sans-serif">from the Noun Project</text></svg>