<svg xmlns="http://www.w3.org/2000/svg" data-name="Layer 1" viewBox="0 0 24 30" x="0px" y="0px"><title>rounded</title><path style="fill: white;" d="M18,5H6A3,3,0,0,0,3,8v8a3,3,0,0,0,3,3H18a3,3,0,0,0,3-3V8A3,3,0,0,0,18,5ZM6,6H18a2.0023,2.0023,0,0,1,2,2v.19873l-8,4.23535L4,8.19873V8A2.0023,2.0023,0,0,1,6,6ZM18,18H6a2.0023,2.0023,0,0,1-2-2V9.33069l7.76562,4.1112a.50173.50173,0,0,0,.46876,0L20,9.33069V16A2.0023,2.0023,0,0,1,18,18Z"/><text x="0" y="39" fill="#000000" font-size="5px" font-weight="bold" font-family="'Helvetica Neue', Helvetica, Arial-Unicode, Arial, Sans-serif">Created by Sophia Bai</text><text x="0" y="44" fill="#000000" font-size="5px" font-weight="bold" font-family="'Helvetica Neue', Helvetica, Arial-Unicode, Arial, Sans-serif">from the Noun Project</text></svg>