<svg xmlns="http://www.w3.org/2000/svg" data-name="Layer 1" viewBox="0 0 24 30" x="0px" y="0px"><path  style="fill: white;" d="M17.5,19h-.50006V17.0556a5,5,0,0,0-1.4458-3.51678l-.85053-.85956a1.00007,1.00007,0,0,1,.00745-1.41418l.80591-.79749A5.00008,5.00008,0,0,0,17,6.91357V5h.5a.5.5,0,0,0,0-1H6.5a.5.5,0,0,0,0,1H7V6.9444a5,5,0,0,0,1.4458,3.51678l.85053.85956a1,1,0,0,1-.00745,1.41418l-.80591.79749a5,5,0,0,0-1.483,3.554V19H6.5a.5.5,0,0,0,0,1h11a.5.5,0,0,0,0-1ZM7.99994,19V17.08643a4.02555,4.02555,0,0,1,1.1864-2.8432l.80591-.79755a2.00222,2.00222,0,0,0,.01495-2.82825l-.85052-.85962A3.97563,3.97563,0,0,1,8,6.9444V5h8V6.91357a4.02555,4.02555,0,0,1-1.1864,2.8432l-.80591.79749a2.00229,2.00229,0,0,0-.01489,2.82831l.85052.85962a3.97593,3.97593,0,0,1,1.15662,2.81341V19Z"/></svg>