<svg xmlns="http://www.w3.org/2000/svg" viewBox="0 0 24 30" x="0px" y="0px"><g><path  style="fill: white;" d="M18.1142,13.24567,16.95758,12.783C16.97491,12.52283,17,12.26477,17,12a11.93829,11.93829,0,0,0-3.577-8.5318,2.02533,2.02533,0,0,0-2.84594,0A11.93829,11.93829,0,0,0,7,12c0,.26477.025.52289.04242.78308l-1.15656.46259A3,3,0,0,0,4,16.03107v1.74914a.99836.99836,0,0,0,1.19611.98053l3.70678-.74133A.99844.99844,0,0,1,9.099,18h5.802a.998.998,0,0,1,.19611.01941l3.70678.74133A.99836.99836,0,0,0,20,17.78021V16.03107A2.99994,2.99994,0,0,0,18.1142,13.24567ZM5,17.78021V16.03107a1.99044,1.99044,0,0,1,1.2572-1.85694l.89966-.35986a11.875,11.875,0,0,0,.88336,3.02863,1.86891,1.86891,0,0,0,.18762.29174Zm10.0473-1.34643a.98537.98537,0,0,1-.907.56622H9.85968a.98543.98543,0,0,1-.907-.56622A10.77054,10.77054,0,0,1,8,12a10.901,10.901,0,0,1,3.27893-7.81946,1.0251,1.0251,0,0,1,1.4422,0A10.90116,10.90116,0,0,1,16,12,10.76958,10.76958,0,0,1,15.0473,16.43378ZM19,17.78021l-3.22784-.64557a1.86891,1.86891,0,0,0,.18762-.29174,11.875,11.875,0,0,0,.88336-3.02863l.89966.35986A1.99038,1.99038,0,0,1,19,16.03107ZM9.5,21a.49971.49971,0,0,1-.5-.5v-1a.5.5,0,0,1,1,0v1A.49971.49971,0,0,1,9.5,21Zm5,0a.49971.49971,0,0,1-.5-.5v-1a.5.5,0,0,1,1,0v1A.49971.49971,0,0,1,14.5,21ZM12,21a.49971.49971,0,0,1-.5-.5v-1a.5.5,0,0,1,1,0v1A.49971.49971,0,0,1,12,21ZM12,9a1.5,1.5,0,1,1-1.5,1.5A1.5017,1.5017,0,0,1,12,9m0-1a2.5,2.5,0,1,0,2.5,2.5A2.5,2.5,0,0,0,12,8Z"/></g></svg>