<svg xmlns="http://www.w3.org/2000/svg" data-name="Layer 1" viewBox="0 0 24 30" x="0px" y="0px"><path  style="fill: white;" d="M16,10.5a.49971.49971,0,0,1-.5.5h-6a.5.5,0,0,1,0-1h6A.49971.49971,0,0,1,16,10.5Zm7,0a3.48941,3.48941,0,0,1-3.0235,3.4519A7.45567,7.45567,0,0,1,18.243,18.31128a1.0009,1.0009,0,0,0-.243.64307V21a1,1,0,0,1-1,1H16a1,1,0,0,1-1-1v-.43579a7.38878,7.38878,0,0,1-5,0V21a1,1,0,0,1-1,1H8a1,1,0,0,1-1-1V18.95325a.99789.99789,0,0,0-.24219-.64112A7.49878,7.49878,0,0,1,5.32471,15.672.98435.98435,0,0,0,4.37305,15H4a1,1,0,0,1-1-1V12a1,1,0,0,1,1-1h.764a1.02642,1.02642,0,0,0,.92444-.6228A7.52968,7.52968,0,0,1,9.24091,6.75244a3.50024,3.50024,0,1,1,6.5194-.0039A7.46753,7.46753,0,0,1,19.8374,11.92a7.89529,7.89529,0,0,1,.13672,1.032A2.50222,2.50222,0,0,0,22,10.5a.5.5,0,0,1,1,0Zm-13-5A2.5,2.5,0,1,0,12.5,3,2.50282,2.50282,0,0,0,10,5.5Zm8.85791,6.62134a6.46159,6.46159,0,0,0-3.59051-4.5011A3.46472,3.46472,0,0,1,9.738,7.62683a6.51706,6.51706,0,0,0-3.14063,3.16736A2.01218,2.01218,0,0,1,4.764,12H4v2h.37305a1.99275,1.99275,0,0,1,1.90844,1.3811,6.46462,6.46462,0,0,0,1.24225,2.28809A2.00532,2.00532,0,0,1,8,18.95325V21H9v-.43579a1.0001,1.0001,0,0,1,1.33362-.94275,6.38835,6.38835,0,0,0,4.33276,0A1.00007,1.00007,0,0,1,16,20.56421V21h1V18.95435a2.008,2.008,0,0,1,.47723-1.28626A6.52744,6.52744,0,0,0,18.85791,12.12134Z"/></svg>