<svg xmlns="http://www.w3.org/2000/svg" data-name="Layer 1" viewBox="0 0 24 30" x="0px" y="0px"><path  style="fill: white;" d="M18.26347,16.70712a1,1,0,1,1-1.41421,0A1.00005,1.00005,0,0,1,18.26347,16.70712ZM9.00011,4a4.968,4.968,0,0,0-1.734.30981L9.07106,6.10049A2,2,0,1,1,6.24263,8.92886L4.39413,7.08035A4.96515,4.96515,0,0,0,4.079,9.899a5.03484,5.03484,0,0,0,3.31148,3.82817,4.89763,4.89763,0,0,0,2.99421.07371l.56673-.16314.417.417,4.77376,4.77368a2.00012,2.00012,0,0,0,2.90345-.07911A2.11825,2.11825,0,0,0,18.85056,15.88L14.1129,11.14235l-.39856-.39858.1346-.54734a4.65548,4.65548,0,0,0-.41113-3.39336,5.09072,5.09072,0,0,0-4.089-2.79123Q9.17324,3.99995,9.00011,4m0-1q.20654,0,.41629.01413a6.10356,6.10356,0,0,1,4.90854,3.32742A5.63709,5.63709,0,0,1,14.82,10.43524l4.73765,4.73764a3.11447,3.11447,0,0,1,.23108,4.24558,3.00013,3.00013,0,0,1-4.35368.11706l-4.77374-4.77368A5.9914,5.9914,0,0,1,3.45985,6.70352a1.011,1.011,0,0,1,.93645-.62359.98935.98935,0,0,1,.70494.29333L6.94977,8.2218A1,1,0,0,0,8.364,6.80762L6.57413,5.01779a1.00218,1.00218,0,0,1,.34416-1.64554A5.97209,5.97209,0,0,1,9.00011,3Z"/></svg>